<?xml version="1.0" encoding="UTF-8" standalone="no"?>
<!DOCTYPE svg PUBLIC "-//W3C//DTD SVG 1.1//EN"
 "http://www.w3.org/Graphics/SVG/1.1/DTD/svg11.dtd">
<!-- Generated by graphviz version 11.0.0 (20240428.1522)
 -->
<!-- Pages: 1 -->
<svg width="405pt" height="188pt"
 viewBox="0.00 0.00 404.88 188.00" xmlns="http://www.w3.org/2000/svg" xmlns:xlink="http://www.w3.org/1999/xlink">
<g id="graph0" class="graph" transform="scale(1 1) rotate(0) translate(4 184)">
<polygon fill="white" stroke="none" points="-4,4 -4,-184 400.88,-184 400.88,4 -4,4"/>
<!-- node_1 -->
<g id="node1" class="node">
<title>node_1</title>
<polygon fill="none" stroke="black" points="8,-148.75 8,-175.25 156.75,-175.25 156.75,-148.75 8,-148.75"/>
<text text-anchor="start" x="13" y="-157.95" font-family="Times,serif" font-weight="bold" font-size="14.00">#0: pbmm2: index hg38</text>
</g>
<!-- node_2 -->
<g id="node2" class="node">
<title>node_2</title>
<polygon fill="none" stroke="black" points="191,-148.75 191,-175.25 351.75,-175.25 351.75,-148.75 191,-148.75"/>
<text text-anchor="start" x="196" y="-157.95" font-family="Times,serif" font-weight="bold" font-size="14.00">#2: pbmm2: align HG002</text>
</g>
<!-- node_3 -->
<g id="node3" class="node">
<title>node_3</title>
<polygon fill="none" stroke="black" points="153.88,-76.75 153.88,-103.25 388.88,-103.25 388.88,-76.75 153.88,-76.75"/>
<text text-anchor="start" x="158.88" y="-85.95" font-family="Times,serif" font-weight="bold" font-size="14.00">#3: pbmm2: depth of coverage HG002</text>
</g>
<!-- node_2&#45;&gt;node_3 -->
<g id="edge1" class="edge">
<title>node_2&#45;&gt;node_3</title>
<path fill="none" stroke="black" d="M271.38,-144.05C271.38,-136.57 271.38,-127.58 271.38,-119.14"/>
<polygon fill="black" stroke="black" points="274.88,-119.3 271.38,-109.3 267.88,-119.3 274.88,-119.3"/>
</g>
<!-- node_4 -->
<g id="node4" class="node">
<title>node_4</title>
<polygon fill="none" stroke="black" points="168.88,-4.75 168.88,-31.25 373.88,-31.25 373.88,-4.75 168.88,-4.75"/>
<text text-anchor="start" x="173.88" y="-13.95" font-family="Times,serif" font-weight="bold" font-size="14.00">#4: pbmm2: downsample HG002</text>
</g>
<!-- node_3&#45;&gt;node_4 -->
<g id="edge2" class="edge">
<title>node_3&#45;&gt;node_4</title>
<path fill="none" stroke="black" d="M271.38,-72.05C271.38,-64.57 271.38,-55.58 271.38,-47.14"/>
<polygon fill="black" stroke="black" points="274.88,-47.3 271.38,-37.3 267.88,-47.3 274.88,-47.3"/>
</g>
</g>
</svg>
