<?xml version="1.0" encoding="UTF-8" standalone="no"?>
<!DOCTYPE svg PUBLIC "-//W3C//DTD SVG 1.1//EN"
 "http://www.w3.org/Graphics/SVG/1.1/DTD/svg11.dtd">
<!-- Generated by graphviz version 11.0.0 (20240428.1522)
 -->
<!-- Pages: 1 -->
<svg width="3152pt" height="404pt"
 viewBox="0.00 0.00 3151.75 404.00" xmlns="http://www.w3.org/2000/svg" xmlns:xlink="http://www.w3.org/1999/xlink">
<g id="graph0" class="graph" transform="scale(1 1) rotate(0) translate(4 400)">
<polygon fill="white" stroke="none" points="-4,4 -4,-400 3147.75,-400 3147.75,4 -4,4"/>
<!-- node_1 -->
<g id="node1" class="node">
<title>node_1</title>
<polygon fill="none" stroke="black" points="8,-364.75 8,-391.25 156.75,-391.25 156.75,-364.75 8,-364.75"/>
<text text-anchor="start" x="13" y="-373.95" font-family="Times,serif" font-weight="bold" font-size="14.00">#0: pbmm2: index hg38</text>
</g>
<!-- node_2 -->
<g id="node2" class="node">
<title>node_2</title>
<polygon fill="none" stroke="black" points="1718,-364.75 1718,-391.25 2046.75,-391.25 2046.75,-364.75 1718,-364.75"/>
<text text-anchor="start" x="1723" y="-373.95" font-family="Times,serif" font-weight="bold" font-size="14.00">#1: pbmm2: download m64062_190803_042216.fastq.1</text>
</g>
<!-- node_6 -->
<g id="node3" class="node">
<title>node_6</title>
<polygon fill="none" stroke="black" points="2162.38,-292.75 2162.38,-319.25 2328.38,-319.25 2328.38,-292.75 2162.38,-292.75"/>
<text text-anchor="start" x="2167.38" y="-301.95" font-family="Times,serif" font-weight="bold" font-size="14.00">#2: pbmm2: align CHM13</text>
</g>
<!-- node_2&#45;&gt;node_6 -->
<g id="edge1" class="edge">
<title>node_2&#45;&gt;node_6</title>
<path fill="none" stroke="black" d="M1970.25,-360.05C2023.35,-349.82 2091.17,-336.74 2146.19,-326.13"/>
<polygon fill="black" stroke="black" points="2146.73,-329.59 2155.88,-324.26 2145.4,-322.71 2146.73,-329.59"/>
</g>
<!-- node_7 -->
<g id="node12" class="node">
<title>node_7</title>
<polygon fill="none" stroke="black" points="1914.25,-220.75 1914.25,-247.25 2154.5,-247.25 2154.5,-220.75 1914.25,-220.75"/>
<text text-anchor="start" x="1919.25" y="-229.95" font-family="Times,serif" font-weight="bold" font-size="14.00">#3: pbmm2: depth of coverage CHM13</text>
</g>
<!-- node_6&#45;&gt;node_7 -->
<g id="edge9" class="edge">
<title>node_6&#45;&gt;node_7</title>
<path fill="none" stroke="black" d="M2194.3,-288.05C2164.73,-278.25 2127.31,-265.83 2096.1,-255.48"/>
<polygon fill="black" stroke="black" points="2097.38,-252.21 2086.78,-252.39 2095.17,-258.86 2097.38,-252.21"/>
</g>
<!-- node_3 -->
<g id="node4" class="node">
<title>node_3</title>
<polygon fill="none" stroke="black" points="2081,-364.75 2081,-391.25 2409.75,-391.25 2409.75,-364.75 2081,-364.75"/>
<text text-anchor="start" x="2086" y="-373.95" font-family="Times,serif" font-weight="bold" font-size="14.00">#1: pbmm2: download m64062_190804_172951.fastq.1</text>
</g>
<!-- node_3&#45;&gt;node_6 -->
<g id="edge2" class="edge">
<title>node_3&#45;&gt;node_6</title>
<path fill="none" stroke="black" d="M2245.38,-360.05C2245.38,-352.57 2245.38,-343.58 2245.38,-335.14"/>
<polygon fill="black" stroke="black" points="2248.88,-335.3 2245.38,-325.3 2241.88,-335.3 2248.88,-335.3"/>
</g>
<!-- node_4 -->
<g id="node5" class="node">
<title>node_4</title>
<polygon fill="none" stroke="black" points="2444,-364.75 2444,-391.25 2772.75,-391.25 2772.75,-364.75 2444,-364.75"/>
<text text-anchor="start" x="2449" y="-373.95" font-family="Times,serif" font-weight="bold" font-size="14.00">#1: pbmm2: download m64062_190806_063919.fastq.1</text>
</g>
<!-- node_4&#45;&gt;node_6 -->
<g id="edge3" class="edge">
<title>node_4&#45;&gt;node_6</title>
<path fill="none" stroke="black" d="M2520.5,-360.05C2467.4,-349.82 2399.58,-336.74 2344.56,-326.13"/>
<polygon fill="black" stroke="black" points="2345.35,-322.71 2334.87,-324.26 2344.02,-329.59 2345.35,-322.71"/>
</g>
<!-- node_5 -->
<g id="node6" class="node">
<title>node_5</title>
<polygon fill="none" stroke="black" points="2807,-364.75 2807,-391.25 3135.75,-391.25 3135.75,-364.75 2807,-364.75"/>
<text text-anchor="start" x="2812" y="-373.95" font-family="Times,serif" font-weight="bold" font-size="14.00">#1: pbmm2: download m64062_190807_194840.fastq.1</text>
</g>
<!-- node_5&#45;&gt;node_6 -->
<g id="edge4" class="edge">
<title>node_5&#45;&gt;node_6</title>
<path fill="none" stroke="black" d="M2799.32,-360.41C2658.82,-346.86 2464.95,-328.17 2347.75,-316.87"/>
<polygon fill="black" stroke="black" points="2348.1,-313.39 2337.81,-315.91 2347.43,-320.36 2348.1,-313.39"/>
</g>
<!-- node_9 -->
<g id="node7" class="node">
<title>node_9</title>
<polygon fill="none" stroke="black" points="190.62,-364.75 190.62,-391.25 538.12,-391.25 538.12,-364.75 190.62,-364.75"/>
<text text-anchor="start" x="195.62" y="-373.95" font-family="Times,serif" font-weight="bold" font-size="14.00">#1: pbmm2: download m64076_200617_023348.ccs.bam.1</text>
</g>
<!-- node_13 -->
<g id="node8" class="node">
<title>node_13</title>
<polygon fill="none" stroke="black" points="1048.75,-292.75 1048.75,-319.25 1208,-319.25 1208,-292.75 1048.75,-292.75"/>
<text text-anchor="start" x="1053.75" y="-301.95" font-family="Times,serif" font-weight="bold" font-size="14.00">#2: pbmm2: align CHM1</text>
</g>
<!-- node_9&#45;&gt;node_13 -->
<g id="edge5" class="edge">
<title>node_9&#45;&gt;node_13</title>
<path fill="none" stroke="black" d="M545.92,-360.37C697.41,-346.49 907.6,-327.23 1029.67,-316.04"/>
<polygon fill="black" stroke="black" points="1029.69,-319.56 1039.33,-315.16 1029.05,-312.59 1029.69,-319.56"/>
</g>
<!-- node_14 -->
<g id="node13" class="node">
<title>node_14</title>
<polygon fill="none" stroke="black" points="1223.62,-220.75 1223.62,-247.25 1457.12,-247.25 1457.12,-220.75 1223.62,-220.75"/>
<text text-anchor="start" x="1228.62" y="-229.95" font-family="Times,serif" font-weight="bold" font-size="14.00">#3: pbmm2: depth of coverage CHM1</text>
</g>
<!-- node_13&#45;&gt;node_14 -->
<g id="edge10" class="edge">
<title>node_13&#45;&gt;node_14</title>
<path fill="none" stroke="black" d="M1179.69,-288.05C1209.4,-278.25 1247,-265.83 1278.35,-255.48"/>
<polygon fill="black" stroke="black" points="1279.33,-258.84 1287.72,-252.38 1277.13,-252.2 1279.33,-258.84"/>
</g>
<!-- node_10 -->
<g id="node9" class="node">
<title>node_10</title>
<polygon fill="none" stroke="black" points="572.62,-364.75 572.62,-391.25 920.12,-391.25 920.12,-364.75 572.62,-364.75"/>
<text text-anchor="start" x="577.62" y="-373.95" font-family="Times,serif" font-weight="bold" font-size="14.00">#1: pbmm2: download m64076_200619_043255.ccs.bam.1</text>
</g>
<!-- node_10&#45;&gt;node_13 -->
<g id="edge6" class="edge">
<title>node_10&#45;&gt;node_13</title>
<path fill="none" stroke="black" d="M838.85,-360.05C896.62,-349.47 970.95,-335.85 1029.83,-325.06"/>
<polygon fill="black" stroke="black" points="1030.32,-328.53 1039.53,-323.28 1029.06,-321.64 1030.32,-328.53"/>
</g>
<!-- node_11 -->
<g id="node10" class="node">
<title>node_11</title>
<polygon fill="none" stroke="black" points="954.62,-364.75 954.62,-391.25 1302.12,-391.25 1302.12,-364.75 954.62,-364.75"/>
<text text-anchor="start" x="959.62" y="-373.95" font-family="Times,serif" font-weight="bold" font-size="14.00">#1: pbmm2: download m64076_200621_051102.ccs.bam.1</text>
</g>
<!-- node_11&#45;&gt;node_13 -->
<g id="edge7" class="edge">
<title>node_11&#45;&gt;node_13</title>
<path fill="none" stroke="black" d="M1128.38,-360.05C1128.38,-352.57 1128.38,-343.58 1128.38,-335.14"/>
<polygon fill="black" stroke="black" points="1131.88,-335.3 1128.38,-325.3 1124.88,-335.3 1131.88,-335.3"/>
</g>
<!-- node_12 -->
<g id="node11" class="node">
<title>node_12</title>
<polygon fill="none" stroke="black" points="1336.62,-364.75 1336.62,-391.25 1684.12,-391.25 1684.12,-364.75 1336.62,-364.75"/>
<text text-anchor="start" x="1341.62" y="-373.95" font-family="Times,serif" font-weight="bold" font-size="14.00">#1: pbmm2: download m64076_200622_112328.ccs.bam.1</text>
</g>
<!-- node_12&#45;&gt;node_13 -->
<g id="edge8" class="edge">
<title>node_12&#45;&gt;node_13</title>
<path fill="none" stroke="black" d="M1417.9,-360.05C1360.13,-349.47 1285.8,-335.85 1226.92,-325.06"/>
<polygon fill="black" stroke="black" points="1227.69,-321.64 1217.22,-323.28 1226.43,-328.53 1227.69,-321.64"/>
</g>
<!-- node_8 -->
<g id="node14" class="node">
<title>node_8</title>
<polygon fill="none" stroke="black" points="1498.25,-148.75 1498.25,-175.25 1708.5,-175.25 1708.5,-148.75 1498.25,-148.75"/>
<text text-anchor="start" x="1503.25" y="-157.95" font-family="Times,serif" font-weight="bold" font-size="14.00">#4: pbmm2: downsample CHM13</text>
</g>
<!-- node_7&#45;&gt;node_8 -->
<g id="edge11" class="edge">
<title>node_7&#45;&gt;node_8</title>
<path fill="none" stroke="black" d="M1929.77,-216.01C1866.06,-205.66 1784.57,-192.43 1718.96,-181.77"/>
<polygon fill="black" stroke="black" points="1719.66,-178.34 1709.23,-180.19 1718.54,-185.25 1719.66,-178.34"/>
</g>
<!-- node_15 -->
<g id="node15" class="node">
<title>node_15</title>
<polygon fill="none" stroke="black" points="1253.62,-148.75 1253.62,-175.25 1457.12,-175.25 1457.12,-148.75 1253.62,-148.75"/>
<text text-anchor="start" x="1258.62" y="-157.95" font-family="Times,serif" font-weight="bold" font-size="14.00">#4: pbmm2: downsample CHM1</text>
</g>
<!-- node_14&#45;&gt;node_15 -->
<g id="edge12" class="edge">
<title>node_14&#45;&gt;node_15</title>
<path fill="none" stroke="black" d="M1344.01,-216.05C1345.63,-208.49 1347.58,-199.37 1349.41,-190.85"/>
<polygon fill="black" stroke="black" points="1352.79,-191.78 1351.46,-181.27 1345.94,-190.31 1352.79,-191.78"/>
</g>
<!-- node_16 -->
<g id="node16" class="node">
<title>node_16</title>
<polygon fill="none" stroke="black" points="1364.25,-76.75 1364.25,-103.25 1586.5,-103.25 1586.5,-76.75 1364.25,-76.75"/>
<text text-anchor="start" x="1369.25" y="-85.95" font-family="Times,serif" font-weight="bold" font-size="14.00">#5: pbmm2: merge CHM1_CHM13</text>
</g>
<!-- node_8&#45;&gt;node_16 -->
<g id="edge13" class="edge">
<title>node_8&#45;&gt;node_16</title>
<path fill="none" stroke="black" d="M1572.39,-144.05C1555.49,-134.81 1534.36,-123.26 1516.13,-113.29"/>
<polygon fill="black" stroke="black" points="1517.86,-110.24 1507.4,-108.52 1514.5,-116.38 1517.86,-110.24"/>
</g>
<!-- node_15&#45;&gt;node_16 -->
<g id="edge14" class="edge">
<title>node_15&#45;&gt;node_16</title>
<path fill="none" stroke="black" d="M1384.42,-144.05C1400.2,-134.85 1419.9,-123.36 1436.93,-113.43"/>
<polygon fill="black" stroke="black" points="1438.41,-116.61 1445.29,-108.55 1434.89,-110.57 1438.41,-116.61"/>
</g>
<!-- node_17 -->
<g id="node17" class="node">
<title>node_17</title>
<polygon fill="none" stroke="black" points="1352.62,-4.75 1352.62,-31.25 1598.12,-31.25 1598.12,-4.75 1352.62,-4.75"/>
<text text-anchor="start" x="1357.62" y="-13.95" font-family="Times,serif" font-weight="bold" font-size="14.00">#6: pbmm2: depth of coverage NA21309</text>
</g>
<!-- node_16&#45;&gt;node_17 -->
<g id="edge15" class="edge">
<title>node_16&#45;&gt;node_17</title>
<path fill="none" stroke="black" d="M1475.38,-72.05C1475.38,-64.57 1475.38,-55.58 1475.38,-47.14"/>
<polygon fill="black" stroke="black" points="1478.88,-47.3 1475.38,-37.3 1471.88,-47.3 1478.88,-47.3"/>
</g>
</g>
</svg>
